#define max_right_width 6
#define max_right_height 6
static unsigned char max_right_bits[] = {
   0x3f, 0x3f, 0x30, 0x30, 0x30, 0x30 };
