#define max_toggled_width 10
#define max_toggled_height 10
static unsigned char max_toggled_bits[] = {
   0x6c, 0x03, 0x6c, 0x03, 0x00, 0x00, 0x7f, 0x03, 0x41, 0x03, 0x41, 0x00,
   0x41, 0x03, 0x41, 0x03, 0x41, 0x00, 0x7f, 0x00 };
